<?xml version="1.0" encoding="utf-8"?>
<svg xmlns="http://www.w3.org/2000/svg" viewBox="0 0 558.19 558.19"><defs><style>.cls-1,.cls-3{fill:none;stroke:#000;stroke-miterlimit:10;}.cls-1{stroke-width:26px;}.cls-2{fill:#cb151d;}.cls-3{stroke-width:11px;}</style></defs><g id="レイヤー_2" data-name="レイヤー 2"><path d="M363.15,22.28l6.07,52.5.63,5.44,4.92,2.4A218.48,218.48,0,0,1,497.59,279.09c0,5-.18,10.15-.55,15.36l-.37,5.46,4.39,3.26,42.47,31.55-84,145.57L411,459.3l-5-2.18-4.54,3.07a218.61,218.61,0,0,1-244.57,0l-4.54-3.07-5,2.18-48.53,21-84-145.57,42.47-31.55,4.39-3.27-.37-5.45c-.37-5.22-.55-10.38-.55-15.36A218.48,218.48,0,0,1,183.42,82.62l4.92-2.4.63-5.44,6.08-52.5h168.1m8.9-10H186.14L179,73.63A228.49,228.49,0,0,0,50.6,279.09c0,5.4.2,10.75.57,16.05L1.54,332l93,161,56.71-24.54a228.59,228.59,0,0,0,255.77,0L463.69,493l93-161L507,295.14c.37-5.3.57-10.65.57-16.05A228.49,228.49,0,0,0,379.16,73.63l-7.11-61.35Z"/><circle class="cls-1" cx="279.1" cy="279.09" r="139.57"/><path class="cls-2" d="M301.49,232.92h-121a108,108,0,0,0-6,16.05H383.72a108.85,108.85,0,0,0-27.91-47.09H247.23a7.5,7.5,0,0,1,0-15h89.71a108.89,108.89,0,0,0-147.89,31H301.49a7.5,7.5,0,0,1,0,15Z"/><path class="cls-2" d="M383.17,311.05a107.86,107.86,0,0,0,3.61-16H221.14a7.5,7.5,0,0,1,0-15H387.93c0-.31,0-.61,0-.92A109.28,109.28,0,0,0,386.89,264H171.29A109.76,109.76,0,0,0,175,311.05Z"/><path class="cls-2" d="M274.62,380.64a7.5,7.5,0,0,1,7.5-7.5h51.79a109.33,109.33,0,0,0,43.4-47.09H180.87a108.86,108.86,0,0,0,98.23,61.89l1.25,0A7.49,7.49,0,0,1,274.62,380.64Zm-57.07-31a7.5,7.5,0,0,1,7.5-7.5h80.73a7.5,7.5,0,0,1,0,15H225.05A7.5,7.5,0,0,1,217.55,349.6Z"/><line class="cls-3" x1="279.1" y1="18.03" x2="279.1" y2="142.21"/><line class="cls-3" x1="506.36" y1="410.31" x2="398.12" y2="347.82"/><line class="cls-3" x1="54.57" y1="408.72" x2="158.21" y2="348.89"/></g></svg>